<svg xmlns="http://www.w3.org/2000/svg" viewBox="0 0 48 48" width="48" height="48" shape-rendering="crispEdges">
  <!-- Ninja character - idle frame 2 (slight bob) -->
  <rect x="16" y="7" width="16" height="4" fill="#2d2d2d"/>
  <rect x="14" y="11" width="20" height="4" fill="#2d2d2d"/>
  <rect x="18" y="11" width="4" height="4" fill="#ffffff"/>
  <rect x="26" y="11" width="4" height="4" fill="#ffffff"/>
  <rect x="20" y="13" width="2" height="2" fill="#111111"/>
  <rect x="28" y="13" width="2" height="2" fill="#111111"/>
  <rect x="14" y="9" width="20" height="2" fill="#cc3333"/>
  <rect x="16" y="15" width="16" height="12" fill="#1a1a2e"/>
  <rect x="16" y="23" width="16" height="2" fill="#cc3333"/>
  <rect x="10" y="17" width="6" height="4" fill="#1a1a2e"/>
  <rect x="32" y="17" width="6" height="4" fill="#1a1a2e"/>
  <rect x="8" y="19" width="4" height="4" fill="#e8c39e"/>
  <rect x="36" y="19" width="4" height="4" fill="#e8c39e"/>
  <rect x="16" y="27" width="6" height="10" fill="#1a1a2e"/>
  <rect x="26" y="27" width="6" height="10" fill="#1a1a2e"/>
  <rect x="14" y="37" width="8" height="3" fill="#4a3728"/>
  <rect x="26" y="37" width="8" height="3" fill="#4a3728"/>
  <rect x="34" y="9" width="4" height="2" fill="#cc3333"/>
  <rect x="36" y="11" width="6" height="2" fill="#cc3333"/>
</svg>